<svg width="24" height="24" viewBox="0 0 24 24" fill="none" xmlns="http://www.w3.org/2000/svg">
<path fill-rule="evenodd" clip-rule="evenodd" d="M1.68707 1.68707C0 3.37413 0 6.0894 0 11.52V12.48C0 17.9106 0 20.6259 1.68707 22.313C3.37413 24 6.0894 24 11.52 24H12.48C17.9106 24 20.6259 24 22.313 22.313C24 20.6259 24 17.9106 24 12.48V11.52C24 6.0894 24 3.37413 22.313 1.68707C20.6259 0 17.9106 0 12.48 0H11.52C6.0894 0 3.37413 0 1.68707 1.68707ZM4.04993 7.30005C4.17993 13.54 7.29988 17.2901 12.7699 17.2901H13.08V13.72C15.09 13.92 16.6098 15.3901 17.2198 17.2901H20.0599C19.2799 14.4501 17.2298 12.8801 15.9498 12.2801C17.2298 11.5401 19.0298 9.74005 19.4598 7.30005H16.8798C16.3198 9.28005 14.66 11.08 13.08 11.25V7.30005H10.4999V14.22C8.89988 13.82 6.87993 11.88 6.78993 7.30005H4.04993Z" fill="#9587A3"/>
</svg>
